<svg width="174" height="28" viewBox="0 0 174 28" fill="none" xmlns="http://www.w3.org/2000/svg">
<path fill-rule="evenodd" clip-rule="evenodd" d="M75.0982 27.5H78.748C78.9441 27.4984 79.1338 27.4353 79.2857 27.321C79.4376 27.2068 79.5427 27.0482 79.5836 26.8714L79.9759 25.0584C81.1975 24.7794 82.3664 24.3319 83.4427 23.7309L85.1056 24.7551C85.2697 24.8573 85.4671 24.9039 85.6643 24.887C85.8614 24.8701 86.0461 24.7907 86.1869 24.6624L88.7711 22.2813C88.9081 22.1525 88.9928 21.9842 89.0111 21.8046C89.0293 21.6251 88.98 21.4452 88.8713 21.2952L87.7585 19.7536C88.4083 18.763 88.893 17.6881 89.1962 16.5648L91.1691 16.2002C91.3599 16.1619 91.5308 16.0649 91.6539 15.9252C91.7769 15.7855 91.8447 15.6114 91.8462 15.4314V12.0686C91.8443 11.8874 91.7753 11.7123 91.6506 11.5723C91.5259 11.4322 91.353 11.3357 91.1605 11.2986L89.1945 10.9352C88.8912 9.81192 88.4066 8.73699 87.7568 7.74636L88.8654 6.21068C88.9769 6.05971 89.0278 5.87768 89.0094 5.69587C88.9911 5.51406 88.9046 5.34381 88.7647 5.21439L86.1805 2.83368C86.0406 2.70733 85.8577 2.62922 85.6627 2.61248C85.4676 2.59574 85.2723 2.64139 85.1094 2.74175L83.4466 3.76907C82.3695 3.16793 81.2 2.72037 79.9776 2.44161L79.5824 0.623857C79.5408 0.448058 79.4355 0.290529 79.2839 0.177155C79.1322 0.0637814 78.9432 0.00130773 78.748 0H75.0982C74.9021 0.00156305 74.7124 0.064693 74.5605 0.17897C74.4085 0.293247 74.3034 0.451839 74.2625 0.628571L73.8677 2.44357C72.6473 2.72352 71.4796 3.17073 70.4034 3.77025L68.7405 2.74686C68.5765 2.64458 68.3791 2.59791 68.1819 2.61482C67.9847 2.63172 67.8 2.71116 67.6593 2.83957L65.075 5.22029C64.9379 5.34919 64.8531 5.51767 64.8349 5.69739C64.8168 5.87711 64.8663 6.05712 64.9752 6.20714L66.0898 7.74321C65.4392 8.73413 64.955 9.81003 64.6537 10.9344L62.6771 11.2998C62.4863 11.3381 62.3153 11.4351 62.1923 11.5748C62.0692 11.7145 62.0014 11.8886 62 12.0686V15.4314C62.0017 15.6121 62.0702 15.7869 62.1942 15.9269C62.3183 16.0669 62.4904 16.1637 62.6822 16.2014L64.6567 16.5652C64.958 17.6898 65.4423 18.7658 66.0932 19.7568L64.9846 21.2889C64.8734 21.4399 64.8224 21.6218 64.8404 21.8036C64.8585 21.9853 64.9444 22.1557 65.0835 22.2856L67.6639 24.6667C67.8038 24.7929 67.9865 24.8709 68.1813 24.8876C68.3762 24.9043 68.5714 24.8588 68.7341 24.7586L70.4072 23.7337C71.4827 24.3322 72.6494 24.7787 73.8685 25.0584L74.2638 26.8761C74.3054 27.0519 74.4107 27.2095 74.5623 27.3228C74.7139 27.4362 74.9029 27.4987 75.0982 27.5ZM70.6251 22.933C70.5576 22.8938 70.4794 22.8731 70.3996 22.8733H70.3987C70.3004 22.8734 70.2051 22.9043 70.1284 22.9609L68.263 24.1073L65.6898 21.7301L66.9519 19.9823C66.9975 19.9191 67.0223 19.845 67.0232 19.7691C67.0241 19.6931 67.0011 19.6186 66.957 19.5545C66.235 18.5079 65.7157 17.3539 65.4221 16.1437C65.4032 16.0679 65.3605 15.9989 65.2993 15.9453C65.2381 15.8917 65.1611 15.8559 65.078 15.8424L62.8527 15.4314V12.069L65.0635 11.6604C65.1497 11.6495 65.2303 11.6145 65.2943 11.5601C65.3583 11.5057 65.4028 11.4346 65.4216 11.3563C65.7152 10.1461 66.2346 8.99207 66.9566 7.94554C67.0007 7.88132 67.0237 7.80668 67.0227 7.73067C67.0217 7.65466 66.9968 7.58055 66.951 7.51732L65.6826 5.76989L68.2617 3.39507L70.1591 4.56186C70.2277 4.60404 70.3081 4.62698 70.3906 4.62789C70.4731 4.62879 70.5541 4.60763 70.6238 4.56696C71.7605 3.9017 73.0132 3.42206 74.3269 3.14914C74.4073 3.13238 74.4806 3.09452 74.5381 3.04014C74.5957 2.98575 74.6348 2.91718 74.6509 2.84271L75.0982 0.785714H78.7475L79.1969 2.84271C79.2131 2.91723 79.2523 2.98584 79.3099 3.04023C79.3675 3.09462 79.4409 3.13245 79.5214 3.14914C80.8351 3.42066 82.0876 3.90026 83.2232 4.56657C83.2939 4.60647 83.3755 4.62716 83.4585 4.62626C83.5414 4.62535 83.6224 4.60289 83.6922 4.56146L85.5836 3.39311L88.161 5.76989L86.9296 7.47607C86.9091 7.49746 86.8912 7.52091 86.8763 7.546C86.8395 7.60759 86.8214 7.67716 86.8237 7.74743C86.826 7.81771 86.8488 7.88612 86.8896 7.94554C87.6118 8.99278 88.1324 10.1471 88.4283 11.3575C88.4465 11.4316 88.4876 11.4992 88.5466 11.5522C88.6057 11.6051 88.6801 11.6412 88.7609 11.6561L90.9934 12.0686V15.431L88.7584 15.8439C88.6775 15.8588 88.6031 15.8949 88.5441 15.9478C88.4851 16.0008 88.444 16.0684 88.4258 16.1425C88.1298 17.3529 87.6092 18.5072 86.887 19.5545C86.8465 19.6141 86.8241 19.6826 86.8222 19.7528C86.8202 19.8231 86.8388 19.8926 86.8759 19.954C86.8882 19.9743 86.9025 19.9935 86.9185 20.0114L88.1619 21.7301L85.5831 24.1053L83.6905 22.9385C83.6207 22.8972 83.5397 22.8748 83.4568 22.8739C83.3738 22.873 83.2923 22.8936 83.2215 22.9334C82.0859 23.5997 80.8333 24.0793 79.5197 24.3509C79.4392 24.3675 79.3658 24.4054 79.3082 24.4598C79.2506 24.5142 79.2113 24.5828 79.1952 24.6573L78.7441 26.7143H75.0986L74.6522 24.6573C74.6361 24.5828 74.5969 24.5142 74.5394 24.4599C74.4819 24.4055 74.4085 24.3676 74.3282 24.3509C73.0145 24.0779 71.7618 23.5983 70.6251 22.933ZM8.28579 8.64508C7.74446 8.09441 6.94646 7.81908 5.89179 7.81908H0.431793V17.6191H5.89179C6.94646 17.6191 7.74446 17.3484 8.28579 16.8071C8.83646 16.2564 9.11179 15.4537 9.11179 14.3991V11.0391C9.11179 9.98441 8.83646 9.18641 8.28579 8.64508ZM5.33179 9.77908C6.17179 9.77908 6.59179 10.1991 6.59179 11.0391V14.3991C6.59179 15.2391 6.17179 15.6591 5.33179 15.6591H2.95179V9.77908H5.33179ZM12.678 12.3691C12.678 11.9957 12.8646 11.8091 13.238 11.8091H14.498C14.8713 11.8091 15.058 11.9957 15.058 12.3691V13.1391H12.678V12.3691ZM12.328 17.7591C13.7933 17.7591 15.4266 17.6657 17.228 17.4791V15.7291C15.4453 15.8691 14.092 15.9391 13.168 15.9391C13.028 15.9391 12.9113 15.8924 12.818 15.7991C12.7246 15.7057 12.678 15.5891 12.678 15.4491V14.8891H17.508V12.2991C17.508 11.5991 17.3073 11.0531 16.906 10.6611C16.514 10.2597 15.968 10.0591 15.268 10.0591H12.468C11.768 10.0591 11.2173 10.2597 10.816 10.6611C10.424 11.0531 10.228 11.5991 10.228 12.2991V15.6591C10.228 16.2937 10.4193 16.8024 10.802 17.1851C11.1846 17.5677 11.6933 17.7591 12.328 17.7591ZM26.1858 10.1991H23.5958L21.9858 15.2391L20.3758 10.1991H17.7858L20.5858 17.6191H23.3858L26.1858 10.1991ZM28.4263 15.5191H25.9063V17.6191H28.4263V15.5191ZM38.6496 10.1991L37.3896 14.6791L36.1296 10.1991H33.8896L32.6296 14.6791L31.3696 10.1991H28.7096L31.0196 17.6191H33.6096L35.0096 13.1391L36.4096 17.6191H38.9996L41.3096 10.1991H38.6496ZM44.0412 12.3691C44.0412 11.9957 44.2279 11.8091 44.6012 11.8091H45.8612C46.2346 11.8091 46.4212 11.9957 46.4212 12.3691V13.1391H44.0412V12.3691ZM43.6912 17.7591C45.1566 17.7591 46.7899 17.6657 48.5912 17.4791V15.7291C46.8086 15.8691 45.4552 15.9391 44.5312 15.9391C44.3912 15.9391 44.2746 15.8924 44.1812 15.7991C44.0879 15.7057 44.0412 15.5891 44.0412 15.4491V14.8891H48.8712V12.2991C48.8712 11.5991 48.6706 11.0531 48.2692 10.6611C47.8772 10.2597 47.3312 10.0591 46.6312 10.0591H43.8312C43.1312 10.0591 42.5806 10.2597 42.1792 10.6611C41.7872 11.0531 41.5912 11.5991 41.5912 12.2991V15.6591C41.5912 16.2937 41.7826 16.8024 42.1652 17.1851C42.5479 17.5677 43.0566 17.7591 43.6912 17.7591ZM54.9558 12.0891C55.0491 12.1824 55.0958 12.2991 55.0958 12.4391V15.1691C55.0958 15.5424 54.9091 15.7291 54.5358 15.7291H52.5758V12.0891C52.7344 12.0704 52.9538 12.0424 53.2338 12.0051C53.5231 11.9677 53.8638 11.9491 54.2558 11.9491H54.6058C54.7458 11.9491 54.8624 11.9957 54.9558 12.0891ZM54.9558 10.0591C54.2744 10.0591 53.4811 10.1524 52.5758 10.3391V7.81908H50.1258V17.6191H55.3058C56.0058 17.6191 56.5518 17.4231 56.9438 17.0311C57.3451 16.6297 57.5458 16.0791 57.5458 15.3791V12.1591C57.5458 11.5244 57.3544 11.0157 56.9718 10.6331C56.5891 10.2504 56.0804 10.0591 55.4458 10.0591H54.9558ZM101.203 15.5191C100.577 15.7057 100.017 15.7991 99.5228 15.7991H99.1728C99.0328 15.7991 98.9161 15.7524 98.8228 15.6591C98.7295 15.5657 98.6828 15.4491 98.6828 15.3091V15.1691C98.6828 15.0291 98.7295 14.9124 98.8228 14.8191C98.9161 14.7257 99.0328 14.6791 99.1728 14.6791H101.203V15.5191ZM101.553 10.0591C100.181 10.0591 98.6408 10.1524 96.9328 10.3391V12.0891C97.3808 12.0611 97.9688 12.0191 98.6968 11.9631C99.4341 11.9071 100.106 11.8791 100.713 11.8791C100.853 11.8791 100.969 11.9257 101.063 12.0191C101.156 12.1124 101.203 12.2291 101.203 12.3691V12.9291H98.3328C97.6981 12.9291 97.1895 13.1204 96.8068 13.5031C96.4241 13.8857 96.2328 14.3944 96.2328 15.0291V15.6591C96.2328 16.2937 96.4241 16.8024 96.8068 17.1851C97.1895 17.5677 97.6981 17.7591 98.3328 17.7591H98.8228C99.1401 17.7591 99.5275 17.6937 99.9848 17.5631C100.451 17.4231 100.904 17.2084 101.343 16.9191L101.483 17.6191H103.653V12.1591C103.653 11.5244 103.461 11.0157 103.079 10.6331C102.696 10.2504 102.187 10.0591 101.553 10.0591ZM107.359 12.3691C107.984 12.1824 108.544 12.0891 109.039 12.0891H109.529C109.669 12.0891 109.786 12.1357 109.879 12.2291C109.972 12.3224 110.019 12.4391 110.019 12.5791V17.6191H112.469V12.1591C112.469 11.5244 112.278 11.0157 111.895 10.6331C111.512 10.2504 111.004 10.0591 110.369 10.0591H109.739C109.422 10.0591 109.03 10.1291 108.563 10.2691C108.106 10.3997 107.658 10.6097 107.219 10.8991L107.079 10.1991H104.909V17.6191H107.359V12.3691ZM118.837 16.9191L118.977 17.6191H121.147V7.81908H118.697V10.1991H115.827C115.127 10.1991 114.577 10.3997 114.175 10.8011C113.783 11.1931 113.587 11.7391 113.587 12.4391V15.6591C113.587 16.2937 113.779 16.8024 114.161 17.1851C114.544 17.5677 115.053 17.7591 115.687 17.7591H116.317C116.635 17.7591 117.022 17.6937 117.479 17.5631C117.946 17.4231 118.399 17.2084 118.837 16.9191ZM118.697 15.4491C118.072 15.6357 117.512 15.7291 117.017 15.7291H116.527C116.387 15.7291 116.271 15.6824 116.177 15.5891C116.084 15.4957 116.037 15.3791 116.037 15.2391V12.6491C116.037 12.2757 116.224 12.0891 116.597 12.0891H118.697V15.4491ZM129.263 17.7591C131.092 17.7591 133.099 17.6424 135.283 17.4091V12.0191H130.943V13.6991H132.763V15.7291C131.876 15.7757 130.896 15.7991 129.823 15.7991C129.608 15.7991 129.436 15.7384 129.305 15.6171C129.184 15.4864 129.123 15.3137 129.123 15.0991V10.6191C129.123 10.0591 129.403 9.77908 129.963 9.77908H134.443V7.81908H129.403C128.423 7.81908 127.709 8.04308 127.261 8.49108C126.822 8.92975 126.603 9.63908 126.603 10.6191V15.0991C126.603 16.0137 126.818 16.6857 127.247 17.1151C127.676 17.5444 128.348 17.7591 129.263 17.7591ZM141.166 15.5191C140.54 15.7057 139.98 15.7991 139.486 15.7991H139.136C138.996 15.7991 138.879 15.7524 138.786 15.6591C138.692 15.5657 138.646 15.4491 138.646 15.3091V15.1691C138.646 15.0291 138.692 14.9124 138.786 14.8191C138.879 14.7257 138.996 14.6791 139.136 14.6791H141.166V15.5191ZM141.516 10.0591C140.144 10.0591 138.604 10.1524 136.896 10.3391V12.0891C137.344 12.0611 137.932 12.0191 138.66 11.9631C139.397 11.9071 140.069 11.8791 140.676 11.8791C140.816 11.8791 140.932 11.9257 141.026 12.0191C141.119 12.1124 141.166 12.2291 141.166 12.3691V12.9291H138.296C137.661 12.9291 137.152 13.1204 136.77 13.5031C136.387 13.8857 136.196 14.3944 136.196 15.0291V15.6591C136.196 16.2937 136.387 16.8024 136.77 17.1851C137.152 17.5677 137.661 17.7591 138.296 17.7591H138.786C139.103 17.7591 139.49 17.6937 139.948 17.5631C140.414 17.4231 140.867 17.2084 141.306 16.9191L141.446 17.6191H143.616V12.1591C143.616 11.5244 143.424 11.0157 143.042 10.6331C142.659 10.2504 142.15 10.0591 141.516 10.0591ZM151.592 10.8991C151.181 10.3391 150.598 10.0591 149.842 10.0591H149.702C149.385 10.0591 148.993 10.1291 148.526 10.2691C148.069 10.3997 147.621 10.6097 147.182 10.8991L147.042 10.1991H144.872V17.6191H147.322V12.3691C147.975 12.1824 148.512 12.0891 148.932 12.0891H149.002C149.142 12.0891 149.259 12.1357 149.352 12.2291C149.445 12.3224 149.492 12.4391 149.492 12.5791V17.6191H151.942V12.3691C152.595 12.1824 153.132 12.0891 153.552 12.0891H153.622C153.762 12.0891 153.879 12.1357 153.972 12.2291C154.065 12.3224 154.112 12.4391 154.112 12.5791V17.6191H156.562V12.1591C156.562 11.5244 156.371 11.0157 155.988 10.6331C155.605 10.2504 155.097 10.0591 154.462 10.0591H154.322C153.93 10.0591 153.482 10.1291 152.978 10.2691C152.483 10.3997 152.021 10.6097 151.592 10.8991ZM160.129 12.3691C160.129 11.9957 160.316 11.8091 160.689 11.8091H161.949C162.322 11.8091 162.509 11.9957 162.509 12.3691V13.1391H160.129V12.3691ZM159.779 17.7591C161.244 17.7591 162.878 17.6657 164.679 17.4791V15.7291C162.896 15.8691 161.543 15.9391 160.619 15.9391C160.479 15.9391 160.362 15.8924 160.269 15.7991C160.176 15.7057 160.129 15.5891 160.129 15.4491V14.8891H164.959V12.2991C164.959 11.5991 164.758 11.0531 164.357 10.6611C163.965 10.2597 163.419 10.0591 162.719 10.0591H159.919C159.219 10.0591 158.668 10.2597 158.267 10.6611C157.875 11.0531 157.679 11.5991 157.679 12.2991V15.6591C157.679 16.2937 157.87 16.8024 158.253 17.1851C158.636 17.5677 159.144 17.7591 159.779 17.7591ZM170.414 15.8691C169.322 15.8691 167.828 15.7991 165.934 15.6591V17.4791C167.828 17.6657 169.602 17.7591 171.254 17.7591C171.888 17.7591 172.397 17.5677 172.78 17.1851C173.162 16.8024 173.354 16.2937 173.354 15.6591V15.0991C173.354 14.4644 173.162 13.9557 172.78 13.5731C172.397 13.1904 171.888 12.9991 171.254 12.9991H168.734C168.594 12.9991 168.477 12.9524 168.384 12.8591C168.29 12.7657 168.244 12.6491 168.244 12.5091C168.244 12.3691 168.29 12.2524 168.384 12.1591C168.477 12.0657 168.594 12.0191 168.734 12.0191H172.654V10.1991H167.894C167.259 10.1991 166.75 10.3904 166.368 10.7731C165.985 11.1557 165.794 11.6644 165.794 12.2991V12.7891C165.794 13.4237 165.985 13.9324 166.368 14.3151C166.75 14.6977 167.259 14.8891 167.894 14.8891H170.904V15.3791C170.904 15.5191 170.857 15.6357 170.764 15.7291C170.67 15.8224 170.554 15.8691 170.414 15.8691ZM80.7864 21.5541C80.7162 21.5541 80.648 21.5218 80.5931 21.4624C80.5382 21.403 80.4997 21.3201 80.484 21.2272C80.4683 21.1343 80.4763 21.037 80.5066 20.951C80.537 20.8651 80.5879 20.7957 80.6512 20.7541C80.9183 20.5794 81.1738 20.3734 81.4147 20.1386C81.4816 20.0779 81.5632 20.0549 81.6423 20.0743C81.7214 20.0937 81.7919 20.1541 81.8389 20.2426C81.8859 20.3311 81.9057 20.441 81.8942 20.549C81.8826 20.657 81.8407 20.7547 81.7771 20.8215C81.507 21.0844 81.2207 21.3151 80.9214 21.5111C80.8794 21.5391 80.8332 21.5538 80.7864 21.5541ZM71.7906 20.8568C73.3098 21.796 75.0959 22.2973 76.923 22.2973C77.073 22.2973 77.223 22.2932 77.3739 22.2859C77.4317 22.2826 77.4882 22.2687 77.5402 22.2452C77.5922 22.2216 77.6386 22.1889 77.6769 22.1487C77.7152 22.1085 77.7446 22.0618 77.7634 22.0111C77.7821 21.9605 77.7899 21.9069 77.7863 21.8534C77.7827 21.8 77.7678 21.7477 77.7423 21.6996C77.7169 21.6515 77.6814 21.6085 77.638 21.5731C77.5946 21.5377 77.5441 21.5105 77.4894 21.4931C77.4346 21.4757 77.3767 21.4685 77.3189 21.4719C77.187 21.4796 77.055 21.4833 76.923 21.4833C75.2699 21.4833 73.6539 21.0297 72.2794 20.18C70.9049 19.3302 69.8336 18.1225 69.201 16.7094C68.5683 15.2963 68.4028 13.7414 68.7253 12.2413C69.0478 10.7412 69.8439 9.36327 71.0128 8.28175C72.1817 7.20023 73.671 6.46371 75.2924 6.16532C76.9137 5.86693 78.5943 6.02008 80.1216 6.60539C81.6488 7.1907 82.9542 8.1819 83.8727 9.45362C84.7911 10.7254 85.2813 12.2205 85.2813 13.75C85.2813 13.8758 85.2773 13.9979 85.269 14.1236C85.2617 14.2314 85.3011 14.3373 85.3783 14.4182C85.4555 14.4992 85.5643 14.5484 85.6807 14.5551C85.7967 14.56 85.9102 14.5231 85.9973 14.452C86.0843 14.3809 86.138 14.2812 86.147 14.1741C86.1563 14.0312 86.1611 13.8929 86.1611 13.75C86.1611 12.0595 85.6193 10.407 84.6042 9.00137C83.5891 7.59578 82.1463 6.50025 80.4583 5.85333C78.7702 5.2064 76.9128 5.03714 75.1207 5.36694C73.3287 5.69673 71.6827 6.51079 70.3907 7.70615C69.0987 8.90151 68.2189 10.4245 67.8624 12.0825C67.506 13.7405 67.6889 15.4591 68.3881 17.0209C69.0873 18.5827 70.2714 19.9176 71.7906 20.8568ZM83.7191 18.5811C83.6454 18.5811 83.5731 18.5646 83.5102 18.5335C83.4473 18.5023 83.3962 18.4577 83.3626 18.4045C83.329 18.3514 83.3142 18.2918 83.3198 18.2322C83.3254 18.1727 83.3512 18.1156 83.3943 18.0672C83.6172 17.8164 83.8136 17.5508 83.9815 17.2734C84.0289 17.1969 84.1118 17.1386 84.2122 17.1114C84.3125 17.0842 84.422 17.0902 84.5168 17.1282C84.6117 17.1661 84.6841 17.2329 84.7183 17.3139C84.7526 17.395 84.7458 17.4837 84.6996 17.5607C84.512 17.8702 84.2927 18.1664 84.0439 18.4462C84.0069 18.4879 83.9581 18.5219 83.9016 18.5454C83.8452 18.5688 83.7826 18.5811 83.7191 18.5811ZM79.2322 15.5429C79.3017 15.5853 79.3844 15.6081 79.4692 15.6081C79.5682 15.6085 79.6641 15.5779 79.7395 15.5219L81.7513 14.0263C81.7971 13.9923 81.8339 13.95 81.8591 13.9024C81.8843 13.8547 81.8974 13.8028 81.8974 13.7503C81.8974 13.6978 81.8843 13.6459 81.8591 13.5983C81.8339 13.5506 81.7971 13.5083 81.7513 13.4743L79.7395 11.9787C79.6981 11.9478 79.65 11.9243 79.5982 11.9096C79.5463 11.8949 79.4917 11.8893 79.4373 11.893C79.383 11.8968 79.33 11.9098 79.2815 11.9315C79.2329 11.9531 79.1897 11.9829 79.1543 12.0191C79.1189 12.0553 79.092 12.0973 79.0752 12.1426C79.0584 12.1879 79.0519 12.2356 79.0562 12.2831C79.0605 12.3306 79.0755 12.3769 79.1002 12.4193C79.125 12.4617 79.1591 12.4995 79.2005 12.5304L80.8416 13.7503L79.2005 14.9703C79.136 15.0183 79.0899 15.0825 79.0684 15.1541C79.0469 15.2258 79.0511 15.3015 79.0804 15.371C79.1097 15.4405 79.1627 15.5005 79.2322 15.5429ZM74.3756 15.6081C74.277 15.6082 74.1816 15.5777 74.1065 15.5219L72.0948 14.0263C72.049 13.9923 72.0122 13.95 71.9869 13.9024C71.9617 13.8547 71.9486 13.8028 71.9486 13.7503C71.9486 13.6978 71.9617 13.6459 71.9869 13.5983C72.0122 13.5506 72.049 13.5083 72.0948 13.4743L74.1065 11.9787C74.1902 11.9163 74.299 11.8855 74.4087 11.893C74.5185 11.9006 74.6203 11.946 74.6917 12.0191C74.7632 12.0923 74.7985 12.1872 74.7898 12.2831C74.7812 12.379 74.7293 12.4679 74.6455 12.5304L73.0032 13.7503L74.6443 14.9703C74.7088 15.0183 74.7549 15.0825 74.7764 15.1541C74.7979 15.2258 74.7937 15.3015 74.7644 15.371C74.7351 15.4405 74.6822 15.5005 74.6126 15.5429C74.5431 15.5853 74.4604 15.6081 74.3756 15.6081ZM75.0564 17.8123C75.1017 17.829 75.1495 17.8376 75.1978 17.8378C75.2808 17.8377 75.3618 17.8123 75.4299 17.765C75.498 17.7177 75.5499 17.6507 75.5787 17.5731L78.3187 10.2097C78.3373 10.1598 78.346 10.1067 78.3441 10.0535C78.3422 10.0002 78.3298 9.94787 78.3076 9.8994C78.2855 9.85094 78.2539 9.8073 78.2149 9.77099C78.1758 9.73467 78.1299 9.70639 78.0799 9.68776C78.0298 9.66913 77.9766 9.66051 77.9232 9.66239C77.8698 9.66428 77.8173 9.67663 77.7687 9.69875C77.7202 9.72086 77.6764 9.75231 77.64 9.79129C77.6036 9.83027 77.5752 9.87602 77.5565 9.92593L74.8166 17.2914C74.7791 17.3922 74.7833 17.5037 74.8283 17.6013C74.8733 17.699 74.9553 17.7749 75.0564 17.8123Z" fill="white"/>
</svg>
